<?xml version="1.0" encoding="UTF-8" standalone="no"?>
<!-- Created with Inkscape (http://www.inkscape.org/) -->

<svg
   width="64pt"
   height="64pt"
   viewBox="0 0 22.577778 22.577778"
   version="1.1"
   id="svg831"
   inkscape:version="1.1.1 (3bf5ae0d25, 2021-09-20)"
   sodipodi:docname="Export.svg"
   inkscape:export-filename="C:\Users\User\Desktop\CARLOS PROJECT\5. MAY 1\Done\Flat\05 - Hand Grip.png"
   inkscape:export-xdpi="576"
   inkscape:export-ydpi="576"
   xmlns:inkscape="http://www.inkscape.org/namespaces/inkscape"
   xmlns:sodipodi="http://sodipodi.sourceforge.net/DTD/sodipodi-0.dtd"
   xmlns="http://www.w3.org/2000/svg"
   xmlns:svg="http://www.w3.org/2000/svg"
   xmlns:rdf="http://www.w3.org/1999/02/22-rdf-syntax-ns#"
   xmlns:cc="http://creativecommons.org/ns#"
   xmlns:dc="http://purl.org/dc/elements/1.1/">
  <defs
     id="defs825">
    <pattern
       id="EMFhbasepattern"
       patternUnits="userSpaceOnUse"
       width="6"
       height="6"
       x="0"
       y="0" />
    <pattern
       id="EMFhbasepattern-9"
       patternUnits="userSpaceOnUse"
       width="6"
       height="6"
       x="0"
       y="0" />
    <pattern
       id="EMFhbasepattern-0"
       patternUnits="userSpaceOnUse"
       width="6"
       height="6"
       x="0"
       y="0" />
    <pattern
       id="EMFhbasepattern-7"
       patternUnits="userSpaceOnUse"
       width="6"
       height="6"
       x="0"
       y="0" />
    <pattern
       id="EMFhbasepattern-2"
       patternUnits="userSpaceOnUse"
       width="6"
       height="6"
       x="0"
       y="0" />
    <pattern
       id="EMFhbasepattern-98"
       patternUnits="userSpaceOnUse"
       width="6"
       height="6"
       x="0"
       y="0" />
    <pattern
       id="EMFhbasepattern-6"
       patternUnits="userSpaceOnUse"
       width="6"
       height="6"
       x="0"
       y="0" />
    <pattern
       id="EMFhbasepattern-01"
       patternUnits="userSpaceOnUse"
       width="6"
       height="6"
       x="0"
       y="0" />
    <pattern
       id="EMFhbasepattern-07"
       patternUnits="userSpaceOnUse"
       width="6"
       height="6"
       x="0"
       y="0" />
    <pattern
       id="EMFhbasepattern-8"
       patternUnits="userSpaceOnUse"
       width="6"
       height="6"
       x="0"
       y="0" />
    <pattern
       id="EMFhbasepattern-4"
       patternUnits="userSpaceOnUse"
       width="6"
       height="6"
       x="0"
       y="0" />
    <pattern
       id="EMFhbasepattern-40"
       patternUnits="userSpaceOnUse"
       width="6"
       height="6"
       x="0"
       y="0" />
    <pattern
       id="EMFhbasepattern-08"
       patternUnits="userSpaceOnUse"
       width="6"
       height="6"
       x="0"
       y="0" />
    <pattern
       id="EMFhbasepattern-04"
       patternUnits="userSpaceOnUse"
       width="6"
       height="6"
       x="0"
       y="0" />
    <pattern
       id="EMFhbasepattern-014"
       patternUnits="userSpaceOnUse"
       width="6"
       height="6"
       x="0"
       y="0" />
    <pattern
       id="EMFhbasepattern-27"
       patternUnits="userSpaceOnUse"
       width="6"
       height="6"
       x="0"
       y="0" />
    <pattern
       id="EMFhbasepattern-09"
       patternUnits="userSpaceOnUse"
       width="6"
       height="6"
       x="0"
       y="0" />
    <pattern
       id="EMFhbasepattern-5"
       patternUnits="userSpaceOnUse"
       width="6"
       height="6"
       x="0"
       y="0" />
    <pattern
       id="EMFhbasepattern-018"
       patternUnits="userSpaceOnUse"
       width="6"
       height="6"
       x="0"
       y="0" />
  </defs>
  <sodipodi:namedview
     id="base"
     pagecolor="#ffffff"
     bordercolor="#666666"
     borderopacity="1.0"
     inkscape:pageopacity="0.0"
     inkscape:pageshadow="2"
     inkscape:zoom="6.5876941"
     inkscape:cx="28.082664"
     inkscape:cy="49.258511"
     inkscape:document-units="pt"
     inkscape:current-layer="layer1"
     showgrid="false"
     units="pt"
     inkscape:window-width="1920"
     inkscape:window-height="1001"
     inkscape:window-x="-9"
     inkscape:window-y="-9"
     inkscape:window-maximized="1"
     inkscape:pagecheckerboard="true"
     inkscape:showpageshadow="false"
     inkscape:object-paths="true"
     inkscape:snap-intersection-paths="true"
     inkscape:snap-smooth-nodes="true"
     inkscape:snap-midpoints="true"
     showguides="true"
     inkscape:snap-bbox="true"
     inkscape:bbox-nodes="true"
     inkscape:snap-nodes="false"
     inkscape:snap-global="true">
    <inkscape:grid
       type="xygrid"
       id="grid1378" />
    <sodipodi:guide
       position="0.97013831,21.607643"
       orientation="78.000048,0"
       id="guide1380"
       inkscape:locked="false" />
    <sodipodi:guide
       position="0.97013831,0.97013129"
       orientation="0,78.000005"
       id="guide1382"
       inkscape:locked="false" />
    <sodipodi:guide
       position="21.607639,0.97013129"
       orientation="-78.000048,0"
       id="guide1384"
       inkscape:locked="false" />
    <sodipodi:guide
       position="21.607639,21.607643"
       orientation="0,-78.000005"
       id="guide1386"
       inkscape:locked="false" />
  </sodipodi:namedview>
  <metadata
     id="metadata828">
    <rdf:RDF>
      <cc:Work
         rdf:about="">
        <dc:format>image/svg+xml</dc:format>
        <dc:type
           rdf:resource="http://purl.org/dc/dcmitype/StillImage" />
      </cc:Work>
    </rdf:RDF>
  </metadata>
  <g
     inkscape:label="Icon"
     inkscape:groupmode="layer"
     id="layer1"
     transform="translate(0,-274.42223)">
    <g
       id="g605866"
       style="display:inline;stroke-width:0.784343"
       transform="matrix(1.2749522,0,0,1.2749522,78.268235,-82.155391)">
      <path
         style="color:#000000;fill:#dc1c4b;stroke-width:0.784343;stroke-linecap:round;stroke-linejoin:round;-inkscape-stroke:none"
         d="m -52.535156,283.55664 c -0.134362,-0.0197 -0.261795,0.0656 -0.294922,0.19727 -0.557895,2.22081 0.04492,4.87304 0.04492,4.87304 l 0.511719,2.94336 c 0.02811,0.15885 0.190608,0.2558 0.34375,0.20508 l 4.380859,-1.44922 c 0.07266,-0.0245 0.131087,-0.0794 0.160156,-0.15039 0.227277,-0.42828 0.681692,-0.70915 0.898439,-0.88278 1.737929,-1.17234 2.138834,-2.39128 2.033203,-3.30469 -0.105631,-0.9134 -0.683594,-1.50391 -0.683594,-1.50391 -6.55e-4,-10e-4 -0.0013,-0.003 -0.002,-0.004 -0.296292,-0.29629 -0.681018,-0.38073 -1.015625,-0.32422 -0.287114,0.0485 -0.531206,0.19839 -0.757813,0.34961 -1.160124,-0.2978 -4.123532,-0.72615 -5.61914,-0.94922 z"
         id="path281375"
         sodipodi:nodetypes="ccccccccscccccc" />
      <path
         id="path288011"
         style="fill:#b01d47;fill-opacity:1;stroke-width:0.784343;stroke-linecap:round;stroke-linejoin:round"
         d="m -52.535295,283.55637 v 5.3e-4 c -0.134119,-0.0195 -0.261282,0.0655 -0.294558,0.19689 -0.09397,0.37405 -0.154665,0.76031 -0.191201,1.14411 0.191328,0.3882 0.447106,0.74451 0.740005,1.05317 0.561167,0.56992 1.178514,0.89438 1.817944,0.99312 h 2.176094 c 0.239598,3.4e-4 0.447017,-0.16641 0.49816,-0.40049 0.084,-0.38033 0.213249,-0.7081 0.478007,-1.04128 0.0033,-0.004 0.0066,-0.008 0.0098,-0.0114 0.23367,-0.31436 0.581224,-0.58104 1.009759,-0.81442 0.136286,-0.0743 0.231228,-0.20674 0.257863,-0.35967 l 0.03049,-0.1757 c -0.05262,0.002 -0.104756,0.007 -0.155546,0.0155 -0.287115,0.0485 -0.530971,0.19812 -0.757576,0.34934 -1.160124,-0.2978 -4.123687,-0.72623 -5.619295,-0.9493 z"
         sodipodi:nodetypes="ccccccccccccccccc" />
      <path
         style="color:#000000;fill:#dc1c4b;fill-opacity:1;stroke-width:0.784343;stroke-linecap:round;stroke-linejoin:round;-inkscape-stroke:none"
         d="m -56.160156,286.6901 c -0.549241,0.13339 -0.971263,0.57261 -1.177735,1.21484 -1.058917,-1e-5 -1.878134,0.39845 -2.396484,1.05078 -0.55168,0.69428 -0.807121,1.61123 -0.875,2.52344 -0.06788,0.91221 0.05157,1.82214 0.292969,2.52734 0.120699,0.35261 0.272231,0.65439 0.460937,0.88477 0.188707,0.23038 0.435062,0.40234 0.726563,0.40234 h 6.25 c 0.819829,0 1.518798,-0.53953 1.753906,-1.28515 a 0.26460996,0.26460996 0 0 0 0.01172,-0.0801 l -0.002,-3.22656 a 0.26460996,0.26460996 0 0 0 -0.0059,-0.0547 c -0.348044,-1.62979 -1.693719,-3.00044 -3.05664,-3.64063 -0.681461,-0.32009 -1.3755,-0.4638 -1.982422,-0.3164 z"
         id="path224179" />
      <path
         id="path582897"
         style="color:#000000;fill:#b01d47;fill-opacity:1;stroke-width:0.784343;stroke-linecap:round;stroke-linejoin:round;-inkscape-stroke:none"
         d="m -52.535295,283.55637 v 5.2e-4 a 0.26460996,0.26460996 0 0 0 -0.294558,0.19688 c -0.02947,0.11731 -0.05581,0.23576 -0.07906,0.35502 1.532118,0.22787 4.337154,0.63685 5.46375,0.92604 0.226605,-0.15122 0.47046,-0.30083 0.757576,-0.34933 0.334608,-0.0565 0.719666,0.0277 1.015957,0.32401 a 0.26460996,0.26460996 0 0 1 0.0021,0.004 c 0,0 0.577532,0.59038 0.683165,1.50378 0.07371,0.63739 -0.09971,1.42385 -0.801503,2.23914 1.145368,-0.99926 1.420244,-1.99373 1.330669,-2.76831 -0.105632,-0.9134 -0.683164,-1.50378 -0.683164,-1.50378 a 0.26460996,0.26460996 0 0 0 -0.0021,-0.004 c -0.296291,-0.29629 -0.68135,-0.38052 -1.015958,-0.32401 -0.287115,0.0485 -0.530971,0.19812 -0.757576,0.34934 -1.160124,-0.2978 -4.123687,-0.72623 -5.619295,-0.9493 z m 5.202783,6.50451 c -0.147725,0.1092 -0.273749,0.20525 -0.377238,0.31833 l 0.160713,-0.0532 a 0.26460996,0.26460996 0 0 0 0.160198,-0.15038 c 0.01718,-0.0411 0.03636,-0.0787 0.05633,-0.11472 z" />
      <path
         style="color:#000000;fill:#b01d47;fill-opacity:1;stroke-width:0.784343;stroke-linecap:round;stroke-linejoin:round;-inkscape-stroke:none"
         d="m -47.814453,290.3457 a 0.26460996,0.26460996 0 0 0 -0.263672,0.26563 v 3.70312 a 0.26460996,0.26460996 0 0 0 0.263672,0.26563 h 1.236328 c 0.364067,0 0.666016,-0.30196 0.666016,-0.66602 v -2.90234 c 0,-0.36406 -0.301957,-0.66602 -0.666016,-0.66602 z"
         id="path15090" />
      <path
         id="path579976"
         style="color:#000000;fill:#801231;fill-opacity:1;stroke-width:0.784343;stroke-linecap:round;stroke-linejoin:round;-inkscape-stroke:none"
         d="m -47.814655,290.34562 a 0.26460996,0.26460996 0 0 0 -0.263548,0.26562 v 3.70313 a 0.26460996,0.26460996 0 0 0 0.263548,0.26562 h 1.236618 c 0.0052,0 0.01037,-4e-4 0.01551,-5.3e-4 0.04501,-0.1159 0.07028,-0.24142 0.07028,-0.37259 v -3.48608 c 0,-0.13174 -0.0254,-0.25818 -0.0708,-0.37465 -0.005,-1.2e-4 -0.01,-5.3e-4 -0.01498,-5.3e-4 z" />
      <path
         style="color:#000000;fill:#dc1c4b;fill-opacity:1;stroke-width:0.784343;stroke-linecap:round;stroke-linejoin:round;-inkscape-stroke:none"
         d="m -50.601562,289.67969 c -0.570851,0 -1.039063,0.47016 -1.039063,1.04101 v 3.48633 c 0,0.57085 0.468212,1.03906 1.039063,1.03906 h 2.541015 c 0.570851,0 1.039063,-0.46821 1.039063,-1.03906 v -3.48633 c 0,-0.57085 -0.468212,-1.04101 -1.039063,-1.04101 z"
         id="path249098" />
      <path
         style="color:#000000;fill:#b01d47;fill-opacity:1;stroke-width:0.784343;stroke-linecap:round;stroke-linejoin:round;-inkscape-stroke:none"
         d="m -49.988281,290.76953 c -0.364059,0 -0.664063,0.3 -0.664063,0.66406 v 2.10938 c 0,0.36406 0.299996,0.66601 0.664063,0.66601 h 1.314453 c 0.364067,0 0.664062,-0.30195 0.664062,-0.66601 v -2.10938 c 0,-0.36406 -0.300003,-0.66406 -0.664062,-0.66406 z"
         id="path65422" />
      <path
         style="color:#000000;fill:#f0517a;fill-opacity:1;stroke-width:0.784343;stroke-linecap:round;stroke-linejoin:round;-inkscape-stroke:none"
         d="m -49.988281,291.29687 h 1.314453 c 0.07808,0 0.134766,0.0586 0.134766,0.13672 v 2.10938 c 0,0.0781 -0.05669,0.13672 -0.134766,0.13672 h -1.314453 c -0.07807,0 -0.134766,-0.0586 -0.134766,-0.13672 v -2.10938 c 0,-0.0781 0.05669,-0.13672 0.134766,-0.13672 z"
         id="path249372" />
      <path
         style="color:#000000;fill:#f0517a;fill-opacity:1;stroke-width:0.784343;stroke-linecap:round;stroke-linejoin:round;-inkscape-stroke:none"
         d="m -46.046875,286.01758 c -0.0808,0.57334 -0.427701,1.26923 -1.412109,2.02929 -0.115372,0.0896 -0.136351,0.25567 -0.04687,0.3711 0.08897,0.11599 0.255155,0.13784 0.371093,0.0488 1.06238,-0.82027 1.509026,-1.64907 1.611329,-2.375 0.02035,-0.14451 -0.08014,-0.27821 -0.224631,-0.2987 -0.144491,-0.0205 -0.27819,0.08 -0.298812,0.22451 z m -2.398437,2.7695 c -0.111114,0.0949 -0.124233,0.26195 -0.0293,0.37305 0.0955,0.1105 0.262477,0.12272 0.373047,0.0273 0.06288,-0.0541 0.13402,-0.107 0.210937,-0.16406 0.117918,-0.0872 0.142447,-0.25362 0.05469,-0.3711 -0.128038,-0.13445 -0.239482,-0.12949 -0.36914,-0.0546 z"
         id="path68802"
         sodipodi:nodetypes="cccccccccccccc" />
      <path
         style="color:#000000;fill:#b01d47;stroke-width:0.784343;stroke-linecap:round;stroke-linejoin:round;-inkscape-stroke:none"
         d="m -56.230469,289.97461 c -0.417369,0 -0.758232,0.29028 -0.978515,0.67578 -0.220283,0.3855 -0.345705,0.88911 -0.345703,1.44141 0,0.55229 0.12542,1.05591 0.345703,1.4414 0.220283,0.3855 0.561148,0.67578 0.978515,0.67578 0.417367,0 0.75628,-0.29028 0.976563,-0.67578 0.220283,-0.38549 0.345702,-0.88911 0.345703,-1.4414 10e-7,-0.5523 -0.12542,-1.05591 -0.345703,-1.44141 -0.220283,-0.3855 -0.559194,-0.67578 -0.976563,-0.67578 z"
         id="path601700" />
      <path
         style="color:#000000;fill:#f0517a;fill-opacity:1;stroke-width:0.784343;stroke-linecap:round;stroke-linejoin:round;-inkscape-stroke:none"
         d="m -58.986328,289.9707 a 0.2645835,0.2645835 0 0 0 -0.332031,0.17188 c -0.03404,0.10729 -0.06491,0.21598 -0.0918,0.32617 a 0.2645835,0.2645835 0 0 0 0.195312,0.32031 0.2645835,0.2645835 0 0 0 0.31836,-0.19531 c 0.02417,-0.0991 0.05179,-0.19569 0.08203,-0.29102 a 0.2645835,0.2645835 0 0 0 -0.171875,-0.33203 z m -0.294922,1.26563 a 0.2645835,0.2645835 0 0 0 -0.28125,0.24804 c -0.05175,0.81284 0.03706,1.67828 0.302734,2.51563 a 0.2645835,0.2645835 0 0 0 0.332032,0.17383 0.2645835,0.2645835 0 0 0 0.171875,-0.33203 c -0.244009,-0.76905 -0.32709,-1.57356 -0.279297,-2.32422 a 0.2645835,0.2645835 0 0 0 -0.246094,-0.28125 z"
         id="path12925" />
      <path
         id="path14570"
         style="color:#000000;fill:#f0517a;fill-opacity:1;stroke-width:0.784343;stroke-linecap:round;stroke-linejoin:round;-inkscape-stroke:none"
         d="m -50.68373,286.99799 c -0.10261,0.1032 -0.10261,0.2699 0,0.3731 l 0.429432,0.42995 -0.429432,0.42943 c -0.10399,0.10344 -0.10399,0.27173 0,0.37517 0.103439,0.10399 0.271732,0.10399 0.375171,0 l 0.428398,-0.42943 0.428916,0.42943 c 0.103439,0.10399 0.271729,0.10399 0.375168,0 0.10399,-0.10344 0.10399,-0.27173 0,-0.37517 l -0.429429,-0.42943 0.429429,-0.42995 c 0.10261,-0.1032 0.10261,-0.2699 0,-0.3731 -0.103439,-0.10399 -0.271729,-0.10399 -0.375168,0 l -0.428916,0.4284 -0.428398,-0.4284 c -0.149539,-0.11604 -0.279075,-0.0848 -0.375171,0 z"
         sodipodi:nodetypes="ccccccccccccccccc" />
      <path
         id="path261433"
         style="color:#000000;fill:#b01d47;stroke-width:0.784343;stroke-linecap:round;stroke-linejoin:round;-inkscape-stroke:none"
         d="m -57.338104,287.90494 c 0.836422,0.22431 1.34902,0.96476 1.535308,1.6242 0.03759,0.14159 0.183076,0.22568 0.324527,0.18759 0.141121,-0.0378 0.224867,-0.18288 0.187069,-0.32401 -0.303033,-1.13094 -0.968489,-1.73653 -1.83038,-1.96577 -0.09624,0.14649 -0.161361,0.30959 -0.216524,0.47799 z"
         sodipodi:nodetypes="cccccc" />
      <path
         id="path281563"
         style="color:#000000;fill:#b01d47;stroke-width:0.784343;stroke-linecap:round;stroke-linejoin:round;-inkscape-stroke:none"
         d="m -48.415484,287.36966 c -0.01315,0.14556 0.09421,0.27421 0.239779,0.28732 0.145748,0.0131 0.274482,-0.0945 0.287322,-0.2403 0.05171,-1.08273 0.374643,-1.87539 1.233938,-2.49381 0.34693,-0.23472 0.770462,-0.44038 1.23145,-0.62683 0.0084,-0.003 0.01693,-0.006 0.02532,-0.01 -1.616666,-0.81865 -3.020114,1.14089 -3.017809,3.08362 z"
         sodipodi:nodetypes="ccccccc" />
      <path
         id="path574278"
         style="color:#000000;fill:#b01d47;fill-opacity:1;stroke-width:0.784343;stroke-linecap:round;stroke-linejoin:round;-inkscape-stroke:none"
         d="m -56.160399,286.69005 c -0.385726,0.0937 -0.707772,0.33892 -0.937409,0.69866 0.126177,-0.0765 0.262496,-0.1341 0.408242,-0.16949 0.606922,-0.1474 1.301364,-0.004 1.982827,0.31626 1.362919,0.64018 2.708098,2.01081 3.056144,3.6406 0.004,0.018 0.006,0.0364 0.0062,0.0548 l 0.0021,3.22667 c 1.73e-4,0.0271 -0.0038,0.0542 -0.01188,0.0801 -0.05105,0.1619 -0.123695,0.31415 -0.214974,0.4532 0.349083,-0.22995 0.615778,-0.57528 0.744141,-0.98236 0.008,-0.0259 0.01205,-0.053 0.01188,-0.0801 l -0.0021,-3.22668 c -1.52e-4,-0.0184 -0.0022,-0.0368 -0.0062,-0.0548 -0.348046,-1.62979 -1.693225,-3.00041 -3.056144,-3.6406 -0.707204,-0.30588 -1.300608,-0.47611 -1.982827,-0.31626 z m -3.620962,2.32697 c 0.494083,-0.36965 1.422334,-0.58292 2.196727,-0.58291 0.06181,-0.19226 0.148673,-0.37606 0.246743,-0.52917 -1.047455,-0.0351 -1.922643,0.36673 -2.44347,1.11208 z"
         sodipodi:nodetypes="ccccccccccccccccccc" />
      <path
         id="path576253"
         style="color:#000000;fill:#b01d47;fill-opacity:1;stroke-width:0.784343;stroke-linecap:round;stroke-linejoin:round;-inkscape-stroke:none"
         d="m -50.601564,289.67952 c -0.420891,0 -0.785489,0.25599 -0.948261,0.61908 0.128466,-0.0574 0.270163,-0.0899 0.419095,-0.0899 h 2.540931 c 0.570849,0 1.039212,0.47043 1.039212,1.04128 v 3.4861 c 0,0.14934 -0.03237,0.29138 -0.08992,0.42013 0.363381,-0.16242 0.619083,-0.52779 0.619083,-0.9493 v -3.48609 c 0,-0.57085 -0.468363,-1.04128 -1.039212,-1.04128 z" />
      <path
         id="path281023"
         style="color:#000000;fill:#dc1c4b;stroke-width:0.784343;stroke-linecap:round;stroke-linejoin:round;-inkscape-stroke:none"
         d="m -50.41036,281.77353 c -1.014746,0 -1.696572,0.25428 -2.085663,0.70125 -0.389091,0.44697 -0.436639,1.04531 -0.293005,1.60145 0.143634,0.55615 0.469839,1.09647 0.876951,1.52549 0.407106,0.42903 0.895757,0.75312 1.412317,0.82786 0.01212,0.002 0.02437,0.004 0.03669,0.004 h 2.176611 c 0.09572,-0.43341 0.26017,-0.84769 0.57826,-1.24798 0.294116,-0.39569 0.704699,-0.70119 1.17357,-0.95653 l 0.06977,-0.40463 c 7.93e-4,-0.002 0.0013,-0.004 0.0021,-0.006 0.07607,-0.51671 -0.0376,-1.0589 -0.441317,-1.44539 -0.403712,-0.3865 -1.054237,-0.59945 -1.990577,-0.59945 z"
         sodipodi:nodetypes="ssscccccccccss" />
      <path
         id="path581387"
         style="color:#000000;fill:#b01d47;fill-opacity:1;stroke-width:0.784343;stroke-linecap:round;stroke-linejoin:round;-inkscape-stroke:none"
         d="m -50.41036,281.77353 c -1.014746,0 -1.696572,0.25428 -2.085663,0.70125 -0.05926,0.0681 -0.110564,0.13953 -0.154511,0.21394 0.401918,-0.24918 0.966896,-0.38602 1.711007,-0.38602 h 1.515669 c 0.936339,0 1.586865,0.21295 1.990577,0.59945 0.403717,0.38649 0.517387,0.92868 0.441317,1.44539 -7.94e-4,0.002 -0.0013,0.004 -0.0021,0.006 l -0.03101,0.17931 c 0.153701,-0.10939 0.318066,-0.21 0.490407,-0.30385 l 0.06977,-0.40463 c 7.93e-4,-0.002 0.0013,-0.004 0.0021,-0.006 0.07607,-0.51671 -0.0376,-1.0589 -0.441317,-1.44539 -0.403712,-0.3865 -1.054237,-0.59945 -1.990577,-0.59945 z"
         sodipodi:nodetypes="sccssccccccccss" />
      <path
         style="color:#000000;fill:#f0517a;fill-opacity:1;stroke-width:0.784343;stroke-linecap:round;stroke-linejoin:round;-inkscape-stroke:none"
         d="m -56.230469,290.50391 c 0.167134,0 0.35482,0.12533 0.517578,0.41015 0.162758,0.28483 0.275392,0.70715 0.275391,1.17774 0,0.47058 -0.112633,0.89291 -0.275391,1.17773 -0.162757,0.28483 -0.350445,0.41016 -0.517578,0.41016 -0.167132,0 -0.356773,-0.12533 -0.519531,-0.41016 -0.162758,-0.28482 -0.27539,-0.70715 -0.275391,-1.17773 -10e-7,-0.47059 0.112633,-0.89291 0.275391,-1.17774 0.162758,-0.28482 0.352398,-0.41015 0.519531,-0.41015 z"
         id="path601786" />
    </g>
  </g>
</svg>
